<svg xmlns="http://www.w3.org/2000/svg" width="1200" height="630" viewBox="0 0 1200 630">
  <rect width="1200" height="630" fill="#0b0d12"/>
  <rect x="44" y="44" width="1112" height="542" rx="32" fill="#10131a" stroke="#252a35" stroke-width="2"/>
  <rect x="84" y="84" width="104" height="104" rx="24" fill="#f6821f"/>
  <path fill="#111827" d="M112 108h17v56h-17z"/>
  <path fill="#111827" d="M145 147c0-9 14-11 14-20 0-5-4-8-10-8-5 0-9 2-13 6l-8-7c5-7 12-11 21-11 13 0 23 7 23 20 0 14-15 16-15 24v2h-12zm-1 18c0-5 4-8 9-8s9 3 9 8-4 8-9 8-9-3-9-8z"/>
  <text x="84" y="282" fill="#f3f4f6" font-family="Inter, ui-sans-serif, system-ui, -apple-system, BlinkMacSystemFont, 'Segoe UI', sans-serif" font-size="86" font-weight="760" letter-spacing="0">Interview</text>
  <text x="84" y="366" fill="#f3f4f6" font-family="Inter, ui-sans-serif, system-ui, -apple-system, BlinkMacSystemFont, 'Segoe UI', sans-serif" font-size="64" font-weight="680" letter-spacing="0">Question Sessions</text>
  <text x="84" y="448" fill="#a0a7b4" font-family="Inter, ui-sans-serif, system-ui, -apple-system, BlinkMacSystemFont, 'Segoe UI', sans-serif" font-size="34" font-weight="460" letter-spacing="0">Software engineering interview notes organized by topic and question.</text>
  <g fill="#f6821f">
    <circle cx="86" cy="522" r="5"/>
    <circle cx="226" cy="522" r="5"/>
    <circle cx="400" cy="522" r="5"/>
  </g>
  <g fill="#d8dee9" font-family="Inter, ui-sans-serif, system-ui, -apple-system, BlinkMacSystemFont, 'Segoe UI', sans-serif" font-size="25" font-weight="650">
    <text x="104" y="530">Linux</text>
    <text x="244" y="530">Networking</text>
    <text x="418" y="530">Databases</text>
  </g>
</svg>
